<svg width="993" height="779" viewBox="0 0 993 779" fill="none" xmlns="http://www.w3.org/2000/svg">
<rect width="993" height="779" fill="white"/>
<path d="M51.2161 95.9133C94.7546 95.9133 136.631 82.9218 180.1 82.9218C208.859 82.9218 295.056 79.21 266.297 79.21C242.259 79.21 219.545 81.7158 195.875 84.6746C182.509 86.3454 164.057 83.2927 151.436 88.902C139.696 94.1199 144.012 112.589 144.012 122.721C144.012 142.896 144.012 163.07 144.012 183.245C144.012 194.827 144.012 206.409 144.012 217.992C144.012 229.244 156.145 225.828 164.324 225.828C189.445 225.828 214.453 219.78 239.902 218.507C261.653 217.42 284.645 210.282 305.271 204.175C344.555 192.544 388.687 177.843 417.451 147.054C437.144 125.975 449.835 92.9231 455.395 64.775C463.969 21.367 379.89 39.0992 362.083 47.8655C346.986 55.2981 327.455 68.4673 316.613 81.4783C305.654 94.6286 302.388 106.398 300.322 122.927C298.484 137.628 293.105 158.466 305.477 170.15C312.478 176.761 321.119 185.887 330.635 188.606C338.874 190.96 352.212 192.769 360.33 188.709C365.167 186.291 367.994 181.367 373.322 179.43C379.979 177.009 387.031 175.473 393.634 172.934C401.966 169.729 387.4 178.315 385.282 179.43C378.309 183.1 371.251 186.882 364.867 191.493C351.808 200.925 337.991 209.586 325.068 218.817C302.661 234.822 279.403 250.006 255.368 263.359C252.553 264.922 243.27 273.612 241.448 276.041C236.304 282.9 230.486 287.828 224.745 293.569C217.222 301.092 203.366 309.92 198.246 318.624C184.409 342.148 171.039 364.94 162.159 390.592C159.22 399.082 159.383 405.715 158.86 415.132C158.143 428.024 150.093 438.955 145.043 450.497C143.149 454.827 140.3 460.928 140.3 465.654C140.3 471.303 142.093 480.42 139.888 485.657C134.572 498.282 134.733 515.62 134.733 529.271C134.733 537.76 134.628 512.292 134.733 503.804C134.899 490.326 139.711 477.274 142.259 464.108C144.633 451.843 144.499 440.375 146.281 428.123C148.012 416.22 152.231 407.716 156.591 396.573C161.432 384.201 167.167 372.937 173.707 361.31C180.615 349.029 191.45 324.608 205.258 319.861C217.867 315.527 226.896 321.766 237.221 328.316C252.238 337.843 260.106 346.264 266.091 363.578C270.874 377.415 275.783 392.997 275.783 407.708C275.783 420.829 279.29 433.156 279.495 446.064C279.734 461.146 281.331 475.174 283 490.194C283.939 498.643 283.258 482.874 283.309 481.636C283.655 473.337 284.366 464.723 286.093 456.581C294.51 416.901 310.285 380.168 346.411 357.804C355.518 352.167 371.382 344.103 382.189 350.587C395.89 358.808 410.423 373.05 414.977 388.736C423.584 418.384 424.954 450.061 433.124 479.677C435.264 487.436 437.248 495.027 437.248 503.288C437.248 506.612 436.86 510.198 437.248 513.496C437.426 515.011 449.836 521.293 452.095 522.363C460.113 526.161 484.061 523.552 491.894 519.991C501.648 515.558 516.903 516.758 527.569 514.321C540.156 511.444 551.659 506.176 564.069 502.257C573.522 499.272 590.515 488.775 597.27 481.12C609.504 467.255 615.743 446.083 620.159 428.536C626.978 401.445 634.799 373.712 626.655 346.566C618.435 319.166 575.659 320.033 553.552 320.48C535.791 320.839 511.789 331.724 497.05 340.895C473.96 355.262 453.264 369.474 433.639 388.118C426.045 395.332 419.49 410.556 415.286 419.772C406.672 438.656 408.304 455.044 415.389 473.078C418.296 480.477 422.536 493.01 428.071 498.545C434.743 505.216 443.632 511.31 451.167 517.208C468.458 530.739 490.541 536.328 512.516 531.024C526.375 527.679 539.834 522.887 553.552 519.063C569.275 514.682 585.719 516.666 601.394 513.083C610.626 510.973 612.423 506.284 617.479 498.339C624.425 487.423 635.406 473.913 635.831 460.293C637.034 421.816 649.356 377.432 671.919 345.844C676.152 339.918 690.201 322.016 698.727 330.378C713.244 344.616 718.325 364.738 719.245 384.509C720.831 418.605 717.492 452.943 717.492 487.1C717.492 491.775 717.492 496.449 717.492 501.123C717.492 507.756 717.354 487.852 717.595 481.223C717.886 473.215 720.444 465.808 721.101 457.921C723.526 428.814 722.92 401.529 732.339 373.27C736.471 360.877 746.349 358.938 756.57 352.752C767.1 346.379 774.174 340.035 786.78 340.895C797.603 341.633 809.026 359.496 815.753 366.672C827.691 379.405 830.263 400.379 834.415 416.988C844.932 459.054 851.795 501.459 858.13 544.221C859.371 552.603 860.152 560.988 861.429 569.38C864.195 587.555 864.984 592.938 847.613 604.23C811.895 627.446 774.651 643.034 733.68 653.515C697.099 662.873 659.664 669.815 622.428 675.992C602.65 679.273 591.036 681.726 574.999 693.108C569.18 697.237 561.595 699.667 561.595 707.44C561.595 714.468 556.027 719.352 556.027 725.999C556.027 730.639 556.027 735.278 556.027 739.918C556.027 746.472 553.512 754.047 561.595 749.198" stroke="black" stroke-width="5" stroke-linecap="round"/>
</svg>
